<svg width="24" height="24" viewBox="0 0 24 24" fill="none" xmlns="http://www.w3.org/2000/svg">
<path d="M11 11.9V17C11 17.2652 11.1054 17.5196 11.2929 17.7071C11.4804 17.8946 11.7348 18 12 18C12.2652 18 12.5196 17.8946 12.7071 17.7071C12.8946 17.5196 13 17.2652 13 17V11.9C14.214 11.6522 15.2928 10.9624 16.0272 9.9644C16.7616 8.9664 17.0992 7.73126 16.9747 6.49846C16.8501 5.26566 16.2723 4.12301 15.3532 3.29205C14.434 2.46109 13.2391 2.00101 12 2.00101C10.7609 2.00101 9.56598 2.46109 8.64685 3.29205C7.72771 4.12301 7.14986 5.26566 7.02532 6.49846C6.90078 7.73126 7.23843 8.9664 7.9728 9.9644C8.70718 10.9624 9.78596 11.6522 11 11.9ZM12 3.99999C12.5933 3.99999 13.1734 4.17593 13.6667 4.50558C14.1601 4.83522 14.5446 5.30376 14.7716 5.85194C14.9987 6.40011 15.0581 7.00331 14.9424 7.58526C14.8266 8.1672 14.5409 8.70175 14.1213 9.12131C13.7018 9.54086 13.1672 9.82659 12.5853 9.94234C12.0033 10.0581 11.4001 9.99869 10.8519 9.77163C10.3038 9.54456 9.83524 9.16005 9.50559 8.6667C9.17595 8.17335 9 7.59333 9 6.99999C9 6.20434 9.31607 5.44128 9.87868 4.87867C10.4413 4.31606 11.2044 3.99999 12 3.99999ZM16.21 14.42C16.0787 14.3924 15.9432 14.391 15.8113 14.4157C15.6795 14.4405 15.5537 14.491 15.4414 14.5644C15.329 14.6377 15.2322 14.7325 15.1565 14.8433C15.0808 14.9541 15.0276 15.0787 15 15.21C14.9724 15.3413 14.971 15.4768 14.9958 15.6087C15.0205 15.7405 15.071 15.8662 15.1444 15.9786C15.2178 16.091 15.3125 16.1878 15.4233 16.2635C15.5341 16.3392 15.6587 16.3924 15.79 16.42C18.06 16.87 19 17.68 19 18C19 18.58 16.55 20 12 20C7.45 20 5 18.58 5 18C5 17.68 5.94 16.87 8.21 16.38C8.34132 16.3524 8.46593 16.2992 8.5767 16.2235C8.68747 16.1478 8.78224 16.051 8.8556 15.9386C8.92896 15.8262 8.97947 15.7005 9.00424 15.5687C9.02902 15.4368 9.02758 15.3013 9 15.17C8.97242 15.0387 8.91925 14.9141 8.84352 14.8033C8.76778 14.6925 8.67097 14.5977 8.55861 14.5244C8.44626 14.451 8.32055 14.4005 8.18867 14.3757C8.05679 14.351 7.92132 14.3524 7.79 14.38C4.75 15.08 3 16.39 3 18C3 20.63 7.53 22 12 22C16.47 22 21 20.63 21 18C21 16.39 19.25 15.08 16.21 14.42Z" fill="black"/>
</svg>
